<?xml version="1.0" encoding="UTF-8"?>
<svg id="Layer_1" data-name="Layer 1" xmlns="http://www.w3.org/2000/svg" viewBox="0 0 670.01 547.8">
  <defs>
    <style>
      .cls-1 {
        fill: #552a73;
      }

      .cls-1, .cls-2, .cls-3, .cls-4, .cls-5, .cls-6, .cls-7, .cls-8, .cls-9, .cls-10, .cls-11, .cls-12, .cls-13, .cls-14, .cls-15 {
        stroke-width: 0px;
      }

      .cls-2 {
        fill: #654080;
      }

      .cls-3 {
        fill: #96c03f;
      }

      .cls-4 {
        fill: #51ab84;
      }

      .cls-5 {
        fill: #542a73;
      }

      .cls-6 {
        fill: #542a72;
      }

      .cls-7 {
        fill: #54ab83;
      }

      .cls-8 {
        fill: #97c040;
      }

      .cls-9 {
        fill: #562b74;
      }

      .cls-10 {
        fill: #602c7e;
      }

      .cls-11 {
        fill: #be2071;
      }

      .cls-12 {
        fill: #4594bb;
      }

      .cls-13 {
        fill: #fce013;
      }

      .cls-14 {
        fill: #bd2171;
      }

      .cls-15 {
        fill: #fce118;
      }
    </style>
  </defs>
  <path class="cls-12" d="M523.32,6.89c14.57,0,29.15,0,43.72,0,5.62,0,8.17,2.22,9.32,8.02,4.27,21.61,8.54,43.22,12.84,64.83,6.64,33.36,13.13,66.76,19.39,100.19,1.56,8.36,3.15,16.72,4.82,25.06.51,2.55-.14,4.35-2.29,5.94-29.11,21.54-58.03,43.31-86.82,65.28-15.44,11.78-30.98,23.44-46.46,35.17-1.14.86-2.24,1.56-3.73.91-1.53-.68-1.54-2.02-1.7-3.41-1.23-11.34-2.53-22.66-3.78-34-.21-1.86-.33-3.73-.4-5.6-.05-1.18-.18-2.34-1.49-2.64-1.3-.3-1.99.67-2.55,1.69-3.32,6.04-6.66,12.08-9.97,18.13-10.77,19.73-21.54,39.47-32.26,59.23-1.2,2.22-2.92,3.25-5.33,3.25-9.8.03-19.6.04-29.4.06-2.6,0-4.25-1.28-5.35-3.6-10.35-21.94-20.74-43.86-31.12-65.78-.33-.69-.55-1.46-1-2.07-2.89-3.96-2.09-7.67-.08-11.87,14.6-30.58,28.99-61.25,43.45-91.9,14.93-31.65,29.83-63.31,44.8-94.94,10.85-22.94,22.45-45.5,34.05-68.07,1.45-2.83,3.74-3.94,6.86-3.93,14.83.05,29.66.02,44.49.02h0Z"/>
  <path class="cls-11" d="M584.28,545.26c-23.35,0-46.7,0-70.06,0-8.65,0-12.91-3.77-13.99-12.27-2.91-22.88-5.89-45.76-8.72-68.65-3.15-25.43-6.19-50.87-9.23-76.31-2.24-18.76-4.36-37.54-6.66-56.3-.43-3.54.62-5.8,3.53-7.98,26.72-20.04,53.3-40.25,79.96-60.37,17.82-13.45,35.68-26.83,53.54-40.22,3.48-2.61,5.57-1.78,6.3,2.54,4.37,25.58,8.72,51.17,13.05,76.76,3.84,22.74,7.62,45.49,11.45,68.23,4,23.75,8.04,47.49,12.03,71.24,3.91,23.25,7.77,46.5,11.65,69.75.92,5.54,1.85,11.08,2.69,16.63,1.35,8.87-4.48,16.4-13.45,16.94-6.46.39-12.95.23-19.42.24-17.56.02-35.11,0-52.67,0v-.25Z"/>
  <path class="cls-4" d="M320.15,348.95c-15.08,0-30.17-.05-45.25.04-3.12.02-5.13-.96-6.83-3.77-29.89-49.49-59.35-99.23-89.59-148.51-6.68-10.89-15.27-20.24-23.56-29.85-12.3-14.26-24.54-28.56-36.81-42.84-1.11-1.29-2.23-2.59-3.45-3.77-1.17-1.13-1.77-2.41-.99-3.87.78-1.48,2.27-1.27,3.64-1.01,3.68.7,7.35,1.47,11.04,2.12,7.84,1.37,15.36-1.74,19.38-8.42,4.13-6.87,4.1-13.81-.49-20.64-9.11-13.57-18.1-27.24-27.23-40.8-1.96-2.91-2.21-5.44-.64-8.75,3.64-7.67,2.81-15.2-1.93-22.29-1.95-2.92-2.06-5.43-.37-7.52,1.31-1.63,3.03-2.37,5.14-2.37,26.84.03,53.68.04,80.53.05,2.7,0,4.4,1.32,5.59,3.69,20.25,40.13,40.05,80.48,59.52,120.99,19.51,40.58,39.19,81.09,58.71,121.67,14.46,30.07,28.79,60.2,43.16,90.31,1.87,3.91.85,5.54-3.56,5.54-15.34.03-30.68.01-46.02.01v-.03Z"/>
  <path class="cls-3" d="M209.53,310.72c0,12.09.02,24.19-.01,36.28-.02,5.26-1.69,6.76-6.84,6.11-23.73-3-47.45-6.07-71.17-9.06-9.2-1.16-18.42-2.2-27.63-3.28-5.94-.69-10.78,1.19-14.68,5.86-5.64,6.77-15.08,9.12-22.92,5.97-8.07-3.24-13.04-10.99-12.63-19.73.4-8.67,5.96-15.83,14.25-18.26,1.38-.4,2.85-.83,4.25-.75,3.3.18,6.14-.96,8.99-2.38,25.21-12.58,50.43-25.14,75.67-37.68,13.04-6.48,26.11-12.88,39.18-19.3,3.31-1.62,5.89-.79,7.74,2.39,1.16,1.98,2.16,4.09,3.55,5.9,3.08,4.01,3.92,8.51,3.78,13.44-.34,11.49-.5,22.99-.74,34.49-.26,0-.52,0-.78,0Z"/>
  <path class="cls-1" d="M414.13,361.68c-6.79,12.66-13.51,25.36-20.37,37.98-15.67,28.84-31.41,57.65-47.12,86.47-.36.67-.78,1.31-1.33,2.22-1.89-3.45-3.69-6.71-5.46-9.97-20.04-36.99-40.08-73.98-60.1-110.98-1.09-2.01-2.47-3.87-3.14-6.09.19-.18.39-.36.58-.54.74.89,1.75.49,2.63.49,42.94.02,85.89.03,128.83,0,.96,0,2.06.42,2.89-.49.91.17,2.18-.68,2.59.91Z"/>
  <path class="cls-13" d="M107.37,198.59c19.29,1.01,38.59,2.01,57.88,3.02,2.58.13,4.45,1.35,5.81,3.56,6.92,11.22,13.89,22.4,20.85,33.6,1.55,2.5.83,4.91-1.94,6.28-14.27,7.03-28.57,14.01-42.83,21.06-13.35,6.6-26.69,13.24-40.01,19.91-4.9,2.45-6.76,1.66-8.42-3.53-5.78-18.03-11.6-36.05-17.45-54.06-.77-2.36-.29-4.09,1.84-5.45,7.92-5.03,13.13-11.94,14.78-21.34.41-2.33,1.95-3.49,4.39-3.32,1.7.12,3.4.23,5.1.35,0-.02,0-.05,0-.07Z"/>
  <path class="cls-5" d="M208.32,386.99c0,5.79-.03,11.59.01,17.38.02,2.67-1.14,4.25-3.71,5.09-2.58.84-5.06,2-7.58,3.02-2.77,1.13-3.8.69-4.85-2.09-6.71-17.61-26.99-23.97-41.97-13.15-2.64,1.91-4.87,4.24-6.57,7.07-1.6,2.67-2.67,3.03-5.71,2.03-19.06-6.28-38.12-12.57-57.18-18.83-1.9-.62-3.23-1.61-3.84-3.66-1.26-4.26-4.09-7.39-7.7-9.87-2.54-1.74-3.4-3.83-2.57-6.27.9-2.64,3.01-2.86,5.38-2.77,8.97.34,16.49-3.05,22.68-9.35,2.9-2.95,6.19-4.02,10.16-3.52,22.06,2.8,44.12,5.6,66.18,8.38,11.15,1.41,22.32,2.74,33.47,4.17,3.49.45,4.57,1.88,4.55,5.49-.02,5.62,0,11.25,0,16.87-.25,0-.5,0-.75,0Z"/>
  <path class="cls-6" d="M206.88,457.16c-.3,10.98-.6,21.97-.88,32.95-.09,3.65-1.08,4.71-4.69,4.75-13.2.15-26.41.29-39.61.44-1.53.02-3.06.13-4.6.15-2.17.03-3.86-.81-5.31-2.52-5.24-6.2-11.98-9.05-20.08-8.53-2.1.13-4.07.17-5.75-1.38-1.93-1.78-2.2-4.35-.51-6.37,8.27-9.85,16.57-19.67,24.84-29.52,1.33-1.58,2.74-1.97,4.71-1.04,15.9,7.51,34.72-2.16,38.15-19.65.45-2.31,1.36-3.63,3.6-4.31,2.19-.66,4.29-1.64,6.43-2.46,3.02-1.17,4.87.04,4.8,3.25-.15,6.81-.43,13.62-.57,20.44-.09,4.6-.02,9.2-.02,13.79-.18,0-.35,0-.53,0Z"/>
  <path class="cls-14" d="M147.2,189.56c-14.76-.84-30.32-1.73-45.87-2.59-2.23-.12-3.59-1.16-4.25-3.33-2.91-9.47-9.21-15.9-18.11-19.93-3.13-1.42-3.71-2.69-2.85-6,3.8-14.56,7.57-29.13,11.32-43.7.42-1.62.82-3.19,2.72-3.64,1.87-.44,3.04.71,4.13,1.96,15.38,17.65,30.76,35.3,46.15,52.95,5.31,6.1,10.61,12.21,15.99,18.25,1.24,1.39,2,2.8,1.26,4.59-.81,1.95-2.6,1.94-4.35,1.85-1.78-.1-3.57-.23-6.14-.4Z"/>
  <path class="cls-6" d="M60.58,436.1c.4,4.74-2.28,8.77-6.66,10.25-4.24,1.43-8.76-.26-11.04-4.13-2.23-3.78-1.6-8.74,1.48-11.77,3.23-3.17,8.27-3.86,11.93-1.1,1.89,1.43,2.99,1.01,4.54-.15,2.53-1.88,5.09-3.73,7.78-5.37,1.49-.91,1.32-1.58.36-2.68-.84-.95-1.55-2.03-2.32-3.05-.97-1.28-1.07-2.58.3-3.56,1.36-.98,2.29-.16,3.15,1.01,4.28,5.83,8.66,11.6,12.92,17.45.88,1.2,1.58,1.65,3.1.99,2.89-1.25,6.06-.7,9.1-.92,14.19-1.04,28.39-1.96,42.58-2.96,1.92-.13,3.16.44,4.06,2.29,2.41,4.93,2.52,4.93-1.11,9.15-7.94,9.24-15.91,18.45-23.88,27.67-1.91,2.21-3.96,2.22-6.05,0-4.09-4.34-8.17-8.69-12.21-13.08-.96-1.04-1.59-1.5-3.12-.63-5.07,2.89-11.1,1.93-14.72-2.07-3.66-4.03-4.08-10.11-.81-14.87.87-1.26.74-1.96-.12-3.04-2.17-2.73-4.25-5.54-6.3-8.36-.74-1.02-1.3-1.22-2.42-.39-2.95,2.17-5.98,4.23-9.05,6.22-1.29.84-2.14,1.67-1.47,3.09Z"/>
  <path class="cls-8" d="M24.1,285.04c.82-1.65-.14-2.28-1.49-2.82-1.74-.7-3.45-1.47-5.11-2.32-2.57-1.32-4.72-2.33-7.79-.23-3.28,2.24-7.84.03-9.21-3.61-1.48-3.94.5-8.18,4.44-9.5,3.81-1.27,8.07.93,8.84,4.99.41,2.14,1.5,2.95,3.27,3.61,2.47.92,4.9,1.97,7.31,3.04,1.05.47,1.71.51,2.58-.52,6-7.13,16.02-6.46,20.88,1.44.91,1.49,1.87,1.86,3.46,1.84,10.47-.12,20.95-.18,31.42-.23,3.43-.02,4.19.61,5.29,3.93.67,2.02,1.42,4.01,2.08,6.03.83,2.54.11,4.36-2.22,5.52-3.96,1.97-7.96,3.87-11.93,5.81-1.01.5-2.06.82-3.19.82-2.77,0-5.45.61-7.92,1.75-2.49,1.14-4.48.69-6.65-.78-3.73-2.53-7.65-4.79-11.43-7.24-1.34-.87-2.36-1.03-3.9-.17-4.37,2.44-8.85,2.26-13.05-.51-3.84-2.54-5.58-6.28-5.69-10.84Z"/>
  <path class="cls-7" d="M130.94,107.2c-4.59-.94-10-2.04-15.41-3.16-5.58-1.15-11.16-2.32-16.74-3.48-4.01-.83-4.97-2.46-3.76-6.31,3.93-12.49,7.87-24.98,11.75-37.49.44-1.43,1.07-2.53,2.6-2.79,1.54-.26,2.55.59,3.39,1.79,6.53,9.45,13.08,18.89,19.62,28.33,2.28,3.29,4.63,6.53,6.81,9.88,1.95,3,1.74,6.15.07,9.2-1.6,2.92-4.28,3.98-8.33,4.02Z"/>
  <path class="cls-15" d="M65.95,215.13c-11.35.09-20.67-9.08-20.79-20.45-.13-11.69,8.95-21.1,20.56-21.3,11.18-.19,20.87,9.2,21.03,20.38.16,11.63-9.23,21.28-20.8,21.37Z"/>
  <path class="cls-6" d="M184.15,506.01c5.62,0,11.24-.01,16.86,0,3.32,0,4.56,1.38,4.43,4.72-.33,8.5-.67,17.01-.96,25.52-.13,3.77-2.11,6.85-5.24,8-3.59,1.32-8.19.21-10.51-2.57-7.08-8.5-14.14-17.02-21.22-25.52-1.09-1.31-2.21-2.6-3.41-3.8-1.29-1.31-1.67-2.82-.96-4.43.66-1.49,2.08-1.85,3.63-1.84,5.79.02,11.58,0,17.37,0v-.08Z"/>
  <path class="cls-14" d="M58.59,133.11c3.31-4,6.2-4.97,9.22-3.34,2.73,1.47,4,4.73,3,7.65-1.11,3.23-4.07,4.77-8.56,4.23,1.36,3.14,2.63,6.14,3.97,9.11.61,1.35,1.04,2.7-.61,3.49-1.84.89-2.55-.46-3.16-1.9-1.46-3.44-3.03-6.84-4.44-10.3-.5-1.22-.94-1.73-2.38-1.23-4.1,1.4-8.24,2.69-12.4,3.9-1.18.35-1.53,1.07-1.88,2.1-1.66,4.9-5.75,7.76-10.61,7.53-4.94-.23-8.78-3.5-9.92-8.43-1.15-4.98,1.55-10.22,6.22-12.1,5.07-2.03,10.85-.16,13.35,4.8,1.14,2.27,2.25,2.32,4.25,1.59,3.03-1.1,6.13-2.06,9.24-2.89,1.45-.39,1.72-.97,1.18-2.26-2.39-5.63-4.8-11.26-7.09-16.93-.59-1.47-1.52-.91-2.47-.81-4.88.54-8.95-1.76-10.73-6.04-1.72-4.14-.61-8.72,2.81-11.57,3.69-3.09,9.08-3.1,12.69-.04,3.92,3.33,4.88,8.84,1.99,13.12-1.06,1.57-1.12,2.74-.39,4.38,2.29,5.19,4.42,10.44,6.73,15.94Z"/>
  <path class="cls-6" d="M166.39,402.58c9.75.07,17.65,8.29,17.49,18.18-.16,9.65-8.39,17.74-17.92,17.62-9.62-.12-17.53-8.28-17.45-18,.08-9.87,8.12-17.88,17.88-17.81Z"/>
  <path class="cls-7" d="M107.44,26.95c.03,10.29-6.62,16.44-15.08,15.84-7.87-.56-13.64-7.99-12.03-16.05.55-2.77-.09-4.09-2.41-5.44-3.89-2.27-7.59-4.87-11.32-7.4-1.07-.72-1.89-.99-3.22-.37-3.05,1.42-6.32.57-8.32-1.85-1.86-2.25-2.08-5.9-.52-8.38,1.64-2.6,4.83-3.87,7.74-3.07,3.25.89,5.69,3.56,5.48,6.81-.13,2.08.81,2.86,2.27,3.73,3.87,2.31,7.73,4.64,11.54,7.06,1.43.91,2.44,1.14,3.98-.09,4.33-3.45,9.24-3.88,14.14-1.44,5.06,2.52,7.61,6.85,7.74,10.64Z"/>
  <path class="cls-15" d="M66.16,270.03c-3.66,0-7.32.02-10.98,0-3.13-.02-4.41-1.61-3.5-4.58,3.66-11.93,7.41-23.84,11.07-35.77.44-1.44,1.18-2.64,2.68-2.68,1.56-.05,2.2,1.27,2.71,2.63,4.26,11.46,8.56,22.91,12.85,34.36,1.3,3.49-.14,5.71-3.84,5.78-3.66.07-7.32.01-10.98.01,0,.08,0,.17,0,.25Z"/>
  <path class="cls-9" d="M77.65,406.3c.11-1.71.55-3.37,1.34-4.86.92-1.72,2.49-2.21,4.36-1.6,16.14,5.31,32.27,10.64,48.42,15.93,1.09.36,1.86.84,1.72,2.12-.15,1.38-1.16,1.44-2.25,1.5-14.03.67-28.05,1.42-42.04,2.61-2.22.19-4.13-.5-5.29-2.74-1.57-3.01-3.33-5.92-5.02-8.87-.73-1.27-1.32-2.57-1.24-4.1Z"/>
  <path class="cls-6" d="M133.12,523.46c-7.85-.02-14.09-6.45-14.05-14.45.04-8.11,6.35-14.38,14.44-14.35,7.74.03,14.27,6.81,14.18,14.74-.09,7.71-6.7,14.09-14.56,14.07Z"/>
  <path class="cls-6" d="M68.57,390.65c-.02,5.89-4.36,10.53-10.29,10.98-5.83.45-10.99-3.61-11.61-9.47-.2-1.87-.63-2.9-2.53-3.29-1.49-.3-2.69-1.37-4.39.05-2.38,1.98-5.8,1.5-7.91-.61-2.1-2.11-2.42-5.75-.73-8.24,1.62-2.38,4.94-3.24,7.75-2.1,2.02.82,3.17,2.4,3.46,4.41.4,2.71,2.83,1.95,4.29,2.78,1.26.72,1.49-.74,1.99-1.39,3.11-3.99,7.96-5.52,12.51-3.9,4.71,1.68,7.47,5.67,7.45,10.78Z"/>
  <path class="cls-7" d="M77.2,83.12c-3.81-.02-6.83-2.4-7.56-6.27-.24-1.26-.74-1.67-1.84-1.97-5.25-1.43-10.48-2.91-15.7-4.42-1.19-.34-2-.1-2.96.74-2.44,2.15-5.81,2.3-8.26.63-2.3-1.57-3.34-4.5-2.55-7.19.82-2.81,3.34-4.82,6.17-4.92,2.81-.1,5.59,1.82,6.46,4.85.38,1.31,1.05,1.78,2.17,2.08,4.92,1.34,9.83,2.7,14.74,4.06,1.54.43,2.72.44,3.98-1.05,2.31-2.73,6.23-3.13,9.32-1.39,3,1.7,4.65,5.33,3.84,8.42-1.08,4.07-3.97,6.45-7.8,6.42Z"/>
  <path class="cls-9" d="M71.6,490.84c-.01-4.29,3.58-7.24,7.93-6.3,1.24.27,2,.17,2.91-.71,3.37-3.24,6.82-6.41,10.26-9.59.89-.82,1.7-1.43.59-2.83-.69-.87-.42-2.18.75-2.85,1.02-.57,1.89-.29,2.72.58,6.27,6.61,12.55,13.21,18.87,19.77,1.1,1.14,1.27,2.28.12,3.3-1.12,1.01-2.15.41-3.09-.57-4.59-4.8-9.29-9.49-13.79-14.38-1.48-1.61-2.31-1.49-3.78-.05-3.15,3.1-6.46,6.05-9.8,8.96-1.15,1-1.54,1.87-1.21,3.47.75,3.7-2.12,7.14-5.91,7.45-3.55.29-6.57-2.59-6.58-6.27Z"/>
  <path class="cls-8" d="M18.35,309.59c4.71.09,7.96,3.16,8.51,8.42.16,1.56.74,2.2,2.06,2.71,4.04,1.55,8.03,3.24,12.06,4.8,1.36.53,2.35,1.26,1.78,2.81-.6,1.62-1.86,1.37-3.18.84-3.93-1.6-7.91-3.1-11.82-4.74-1.55-.65-2.61-.72-4.02.61-2.79,2.63-7.44,2.66-10.67.47-3.1-2.11-4.45-6.02-3.33-9.66,1.22-3.96,4.49-6.34,8.59-6.26Z"/>
  <path class="cls-15" d="M1.54,183.34c-.07-4.82,3.02-8.43,7.28-9.02,4.01-.56,8.25,2.37,8.99,6.58.34,1.95,1.21,2.6,2.98,3.01,4.8,1.12,9.56,2.44,14.34,3.66,1.36.35,2.51.9,2.13,2.57-.4,1.75-1.79,1.6-3.07,1.28-4.87-1.23-9.74-2.46-14.57-3.8-1.63-.45-2.73-.28-4.04,1.02-2.48,2.47-5.63,3.16-8.95,1.8-3.35-1.38-4.75-4.18-5.08-7.1Z"/>
  <path class="cls-15" d="M28.04,214.42c1.57-.15,3.36.22,4.63,1.29,1.65,1.39,2.63.65,3.86-.4,1.36-1.15,2.82-2.19,4.25-3.26.95-.71,1.87-.8,2.65.27.74,1.01.57,1.91-.38,2.67-.6.48-1.18.99-1.84,1.36-3.1,1.77-4.88,3.84-4.54,7.99.37,4.56-4.73,8.66-9.18,8.38-4.77-.3-8.68-4.6-8.59-9.43.09-5.05,3.91-8.84,9.14-8.86Z"/>
  <path class="cls-8" d="M16.85,362.21c-2.82,0-5.27-1.67-6.33-4.33-1.06-2.66-.4-5.68,1.62-7.49,2.15-1.93,5.35-2.56,7.8-.92,1.87,1.25,3.15.8,4.81-.1,4.94-2.66,9.96-5.18,14.93-7.79,1.24-.65,2.47-1.11,3.25.46.8,1.59-.13,2.47-1.54,3.17-5.25,2.63-10.45,5.35-15.69,7.98-1.3.65-2.02,1.34-2.11,3.03-.19,3.5-3.21,5.98-6.75,5.99Z"/>
  <path class="cls-2" d="M414.13,361.68c-.42-1.59-1.68-.74-2.59-.91-44.79,0-89.57,0-134.36-.01-.19.18-.39.36-.58.54-.54-1.03.08-1.4.94-1.51.67-.09,1.36-.03,2.04-.03,44.09,0,88.18,0,132.28.07.92,0,3.56-1.22,2.28,1.85Z"/>
  <path class="cls-9" d="M170.25,541.21c-.04,3.63-3.16,6.67-6.74,6.58-3.54-.09-6.51-3.11-6.46-6.58.05-3.62,3.18-6.68,6.75-6.59,3.54.09,6.49,3.11,6.45,6.59Z"/>
  <path class="cls-10" d="M277.18,360.76c44.79,0,89.57,0,134.36.01-.83.91-1.93.49-2.89.49-42.94.02-85.89.02-128.83,0-.88,0-1.89.39-2.63-.49Z"/>
</svg>